# xmcd
#
# Track frame offsets:
#	150
#	21337
#	41665
#	54930
#	79047
#	95415
#	111747
#	128230
#	148292
#	164590
#	181712
#	195682
#	209080
#	222877
#	238667
#	258222
#	273810
#	286437
#	302290
#
# Disc length: 4249
#
# Revision: 5
# Processed by: cddbd v1.5.1PL0 Copyright (c) Steve Scherf et al.
# Submitted via: ExactAudioCopy v0.95a5
# Normalized: r4:DSETVAR1
#
DISCID=1b109713
DTITLE=Various Artist - Blind Pig Sampler- Prime Chops- Volume 2
DYEAR=1993
DGENRE=Blues
TTITLE0=Debbie Davies - Don't Take Advantage of Me
TTITLE1=Jimmy Thackery and the Drivers - Last Night
TTITLE2=Carey Bell - Mellow Down Easy
TTITLE3=Joanna Connor - Texas
TTITLE4=Roy Rogers and Norton Buffalo - Ain't No Bread In the Breadbox
TTITLE5=Gospel Hummingbirds - Judgement Day
TTITLE6=Little Mike and the Tornadoes - What About Love
TTITLE7=Eddy Clearwater - Crossover
TTITLE8=Roosevelt Sykes - Too Smart Too Soon
TTITLE9=John Mooney - Take a Walk Around the Corner
TTITLE10=Johnny Shines and Snooky Pryor - Cool Driver
TTITLE11=Al Rapone - Yvette U. B. Dancin'
TTITLE12=Mitch Woods and His Rocket 88s - Solid Gold Cadillac
TTITLE13=Chris Cain Band - Pick Up the Tab
TTITLE14=Walter Horton - Walter's Swing
TTITLE15=Roy Rogers - Black Cat Bone
TTITLE16=Deanna Bogart - Beat Me Daddy (Eight To the Bar)
TTITLE17=Magic Slim - Cold Women With Warm Hearts
TTITLE18=Otis Clay - Have Mercy Jesus
EXTD=LABEL =Blind Pig Records\nID =BPCD8002\nUPC =01914-88002-29\nCOPYRIGHT =1993
EXTT0=
EXTT1=
EXTT2=
EXTT3=
EXTT4=
EXTT5=
EXTT6=
EXTT7=
EXTT8=
EXTT9=
EXTT10=
EXTT11=
EXTT12=
EXTT13=
EXTT14=
EXTT15=
EXTT16=
EXTT17=
EXTT18=
PLAYORDER=
